<?xml version="1.0" encoding="UTF-8" standalone="no"?>
<svg
   xmlns:dc="http://purl.org/dc/elements/1.1/"
   xmlns:cc="http://creativecommons.org/ns#"
   xmlns:rdf="http://www.w3.org/1999/02/22-rdf-syntax-ns#"
   xmlns:svg="http://www.w3.org/2000/svg"
   xmlns="http://www.w3.org/2000/svg"
   xmlns:sodipodi="http://sodipodi.sourceforge.net/DTD/sodipodi-0.dtd"
   xmlns:inkscape="http://www.inkscape.org/namespaces/inkscape"
   version="1.0"
   width="110.744mm"
   height="129.0574mm"
   id="svg261"
   sodipodi:docname="inkscape windows nt logo.svg"
   inkscape:version="0.92.4 (5da689c313, 2019-01-14)">
  <metadata
     id="metadata265">
    <rdf:RDF>
      <cc:Work
         rdf:about="">
        <dc:format>image/svg+xml</dc:format>
        <dc:type
           rdf:resource="http://purl.org/dc/dcmitype/StillImage" />
        <dc:title></dc:title>
      </cc:Work>
    </rdf:RDF>
  </metadata>
  <sodipodi:namedview
     pagecolor="#ffffff"
     bordercolor="#666666"
     borderopacity="1"
     objecttolerance="10"
     gridtolerance="10"
     guidetolerance="10"
     inkscape:pageopacity="0"
     inkscape:pageshadow="2"
     inkscape:window-width="1536"
     inkscape:window-height="839"
     id="namedview263"
     showgrid="false"
     inkscape:zoom="1.368474"
     inkscape:cx="218.06867"
     inkscape:cy="242.10908"
     inkscape:window-x="-8"
     inkscape:window-y="0"
     inkscape:window-maximized="1"
     inkscape:current-layer="svg261" />
  <defs
     id="defs3">
    <pattern
       id="WMFhbasepattern"
       patternUnits="userSpaceOnUse"
       width="6"
       height="6"
       x="0"
       y="0" />
  </defs>
  <path
     style="fill:#000000;fill-rule:evenodd;fill-opacity:1;stroke:none;"
     d="  M 171.456,39.168   L 183.456,32.256   L 195.168,26.112   L 206.688,20.736   L 217.824,16.032   L 228.768,12.096   L 239.328,8.832   L 249.6,6.048   L 259.584,3.84   L 269.28,2.208   L 278.592,1.056   L 287.616,0.288   L 296.256,0   L 304.512,0   L 312.48,0.384   L 320.064,1.152   L 327.36,2.208   L 334.176,3.264   L 340.608,4.8   L 346.656,6.336   L 352.32,7.968   L 357.6,9.696   L 362.4,11.52   L 366.816,13.248   L 370.752,15.168   L 374.304,16.8   L 377.376,18.336   L 380.064,19.776   L 382.176,21.12   L 383.904,22.176   L 385.152,22.848   L 385.824,23.424   L 386.112,23.616   L 386.112,308.544   L 377.376,303.264   L 368.448,298.848   L 359.52,295.008   L 350.4,291.744   L 341.184,289.152   L 331.968,287.328   L 322.752,285.888   L 313.632,284.928   L 304.512,284.544   L 295.392,284.64   L 286.464,285.024   L 277.632,285.792   L 268.896,286.848   L 260.448,288.288   L 252.192,289.92   L 244.128,291.744   L 236.352,293.856   L 228.96,295.968   L 221.76,298.272   L 215.04,300.576   L 208.608,302.976   L 202.656,305.376   L 197.088,307.584   L 192,309.888   L 187.392,312   L 183.36,313.92   L 179.808,315.744   L 176.928,317.184   L 174.528,318.432   L 172.896,319.296   L 171.84,319.968   L 171.456,320.16   L 171.456,39.168  z "
     id="path5" />
  <path
     style="fill:none;stroke:#000000;stroke-width:0.096000001px;stroke-linecap:round;stroke-linejoin:round;stroke-miterlimit:4;stroke-dasharray:none;stroke-opacity:1;"
     d="  M 171.456,39.168   L 171.456,39.168   L 183.456,32.256   L 195.168,26.112   L 206.688,20.736   L 217.824,16.032   L 228.768,12.096   L 239.328,8.832   L 249.6,6.048   L 259.584,3.84   L 269.28,2.208   L 278.592,1.056   L 287.616,0.288   L 296.256,0   L 304.512,0   L 312.48,0.384   L 320.064,1.152   L 327.36,2.208   L 334.176,3.264   L 340.608,4.8   L 346.656,6.336   L 352.32,7.968   L 357.6,9.696   L 362.4,11.52   L 366.816,13.248   L 370.752,15.168   L 374.304,16.8   L 377.376,18.336   L 380.064,19.776   L 382.176,21.12   L 383.904,22.176   L 385.152,22.848   L 385.824,23.424   L 386.112,23.616   L 386.112,308.544   L 386.112,308.544   L 377.376,303.264   L 368.448,298.848   L 359.52,295.008   L 350.4,291.744   L 341.184,289.152   L 331.968,287.328   L 322.752,285.888   L 313.632,284.928   L 304.512,284.544   L 295.392,284.64   L 286.464,285.024   L 277.632,285.792   L 268.896,286.848   L 260.448,288.288   L 252.192,289.92   L 244.128,291.744   L 236.352,293.856   L 228.96,295.968   L 221.76,298.272   L 215.04,300.576   L 208.608,302.976   L 202.656,305.376   L 197.088,307.584   L 192,309.888   L 187.392,312   L 183.36,313.92   L 179.808,315.744   L 176.928,317.184   L 174.528,318.432   L 172.896,319.296   L 171.84,319.968   L 171.456,320.16   L 171.456,39.168  "
     id="path7" />
  <path
     style="fill:#000000;fill-rule:evenodd;fill-opacity:1;stroke:none;"
     d="  M 10.656,162.72   L 10.656,151.104   L 23.424,144.864   L 23.424,156.96   L 10.656,162.72  z "
     id="path9" />
  <path
     style="fill:none;stroke:#000000;stroke-width:0.096000001px;stroke-linecap:round;stroke-linejoin:round;stroke-miterlimit:4;stroke-dasharray:none;stroke-opacity:1;"
     d="  M 10.656,162.72   L 10.656,151.104   L 23.424,144.864   L 23.424,156.96   L 10.656,162.72  "
     id="path11" />
  <path
     style="fill:#ffffff;fill-rule:evenodd;fill-opacity:1;stroke:none;"
     d="  M 208.704,62.496   L 208.032,60.672   L 170.112,77.76   L 171.456,81.504   L 209.376,64.32   L 208.704,62.496  z "
     id="path13" />
  <path
     style="fill:#ffffff;fill-rule:evenodd;fill-opacity:1;stroke:none;"
     d="  M 211.488,100.8   L 210.816,98.976   L 165.792,119.424   L 167.136,123.168   L 212.16,102.72   L 211.488,100.8  z "
     id="path15" />
  <path
     style="fill:#ffffff;fill-rule:evenodd;fill-opacity:1;stroke:none;"
     d="  M 213.024,140.256   L 212.352,138.336   L 167.328,158.784   L 168.672,162.528   L 213.696,142.08   L 213.024,140.256  z "
     id="path17" />
  <path
     style="fill:#ffffff;fill-rule:evenodd;fill-opacity:1;stroke:none;"
     d="  M 214.464,179.52   L 213.792,177.6   L 168.768,198.048   L 170.112,201.792   L 215.136,181.344   L 214.464,179.52  z "
     id="path19" />
  <path
     style="fill:#ffffff;fill-rule:evenodd;fill-opacity:1;stroke:none;"
     d="  M 215.808,219.744   L 215.136,217.92   L 165.6,240.48   L 166.944,243.936   L 216.48,221.472   L 215.808,219.744  z "
     id="path21" />
  <path
     style="fill:#ffffff;fill-rule:evenodd;fill-opacity:1;stroke:none;"
     d="  M 208.512,262.944   L 207.84,261.216   L 168.864,279.168   L 170.208,282.624   L 209.184,264.672   L 208.512,262.944  z "
     id="path23" />
  <path
     style="fill:#000000;fill-rule:evenodd;fill-opacity:1;stroke:none;"
     d="  M 134.016,79.392   L 134.016,49.92   L 166.272,36   L 166.272,65.28   L 134.016,79.392  z "
     id="path25" />
  <path
     style="fill:none;stroke:#000000;stroke-width:0.096000001px;stroke-linecap:round;stroke-linejoin:round;stroke-miterlimit:4;stroke-dasharray:none;stroke-opacity:1;"
     d="  M 134.016,79.392   L 134.016,49.92   L 166.272,36   L 166.272,65.28   L 134.016,79.392  "
     id="path27" />
  <path
     style="fill:#000000;fill-rule:evenodd;fill-opacity:1;stroke:none;"
     d="  M 98.88,74.304   L 98.88,52.032   L 127.488,39.648   L 127.488,62.016   L 98.88,74.304  z "
     id="path29" />
  <path
     style="fill:none;stroke:#000000;stroke-width:0.096000001px;stroke-linecap:round;stroke-linejoin:round;stroke-miterlimit:4;stroke-dasharray:none;stroke-opacity:1;"
     d="  M 98.88,74.304   L 98.88,52.032   L 127.488,39.648   L 127.488,62.016   L 98.88,74.304  "
     id="path31" />
  <path
     style="fill:#000000;fill-rule:evenodd;fill-opacity:1;stroke:none;"
     d="  M 67.968,67.008   L 67.968,50.4   L 90.816,40.416   L 90.816,57.312   L 67.968,67.008  z "
     id="path33" />
  <path
     style="fill:none;stroke:#000000;stroke-width:0.096000001px;stroke-linecap:round;stroke-linejoin:round;stroke-miterlimit:4;stroke-dasharray:none;stroke-opacity:1;"
     d="  M 67.968,67.008   L 67.968,50.4   L 90.816,40.416   L 90.816,57.312   L 67.968,67.008  "
     id="path35" />
  <path
     style="fill:#000000;fill-rule:evenodd;fill-opacity:1;stroke:none;"
     d="  M 39.744,52.416   L 39.744,38.592   L 57.216,31.296   L 57.216,45.216   L 39.744,52.416  z "
     id="path37" />
  <path
     style="fill:none;stroke:#000000;stroke-width:0.096000001px;stroke-linecap:round;stroke-linejoin:round;stroke-miterlimit:4;stroke-dasharray:none;stroke-opacity:1;"
     d="  M 39.744,52.416   L 39.744,38.592   L 57.216,31.296   L 57.216,45.216   L 39.744,52.416  "
     id="path39" />
  <path
     style="fill:#000000;fill-rule:evenodd;fill-opacity:1;stroke:none;"
     d="  M 10.656,41.76   L 10.656,29.952   L 23.424,24   L 23.424,36   L 10.656,41.76  z "
     id="path41" />
  <path
     style="fill:none;stroke:#000000;stroke-width:0.096000001px;stroke-linecap:round;stroke-linejoin:round;stroke-miterlimit:4;stroke-dasharray:none;stroke-opacity:1;"
     d="  M 10.656,41.76   L 10.656,29.952   L 23.424,24   L 23.424,36   L 10.656,41.76  "
     id="path43" />
  <path
     style="fill:#000000;fill-rule:evenodd;fill-opacity:1;stroke:none;"
     d="  M 134.016,78.432   L 134.016,78.432  z "
     id="path45" />
  <path
     style="fill:none;stroke:#000000;stroke-width:0.096000001px;stroke-linecap:round;stroke-linejoin:round;stroke-miterlimit:4;stroke-dasharray:none;stroke-opacity:1;"
     d="  M 134.016,78.432   L 134.016,78.432  "
     id="path47" />
  <path
     style="fill:#ff592b;fill-rule:evenodd;fill-opacity:1;stroke:none;"
     d="  M 137.184,116.928   L 137.184,92.448   L 164.16,80.64   L 164.16,105.408   L 137.184,116.928  z "
     id="path49" />
  <path
     style="fill:none;stroke:#ff592b;stroke-width:0.096000001px;stroke-linecap:round;stroke-linejoin:round;stroke-miterlimit:4;stroke-dasharray:none;stroke-opacity:1;"
     d="  M 137.184,116.928   L 137.184,92.448   L 164.16,80.64   L 164.16,105.408   L 137.184,116.928  "
     id="path51" />
  <path
     style="fill:#ff592b;fill-rule:evenodd;fill-opacity:1;stroke:none;"
     d="  M 101.664,113.088   L 101.664,92.64   L 125.76,82.176   L 125.76,102.624   L 101.664,113.088  z "
     id="path53" />
  <path
     style="fill:none;stroke:#ff592b;stroke-width:0.096000001px;stroke-linecap:round;stroke-linejoin:round;stroke-miterlimit:4;stroke-dasharray:none;stroke-opacity:1;"
     d="  M 101.664,113.088   L 101.664,92.64   L 125.76,82.176   L 125.76,102.624   L 101.664,113.088  "
     id="path55" />
  <path
     style="fill:#ff592b;fill-rule:evenodd;fill-opacity:1;stroke:none;"
     d="  M 70.368,105.888   L 70.368,91.296   L 89.664,82.944   L 89.664,97.824   L 70.368,105.888  z "
     id="path57" />
  <path
     style="fill:none;stroke:#ff592b;stroke-width:0.096000001px;stroke-linecap:round;stroke-linejoin:round;stroke-miterlimit:4;stroke-dasharray:none;stroke-opacity:1;"
     d="  M 70.368,105.888   L 70.368,91.296   L 89.664,82.944   L 89.664,97.824   L 70.368,105.888  "
     id="path59" />
  <path
     style="fill:#ff592b;fill-rule:evenodd;fill-opacity:1;stroke:none;"
     d="  M 41.952,92.256   L 41.952,79.392   L 56.064,73.536   L 56.064,86.304   L 41.952,92.256  z "
     id="path61" />
  <path
     style="fill:none;stroke:#ff592b;stroke-width:0.096000001px;stroke-linecap:round;stroke-linejoin:round;stroke-miterlimit:4;stroke-dasharray:none;stroke-opacity:1;"
     d="  M 41.952,92.256   L 41.952,79.392   L 56.064,73.536   L 56.064,86.304   L 41.952,92.256  "
     id="path63" />
  <path
     style="fill:#ff592b;fill-rule:evenodd;fill-opacity:1;stroke:none;"
     d="  M 11.808,80.064   L 11.808,69.6   L 22.272,64.608   L 22.272,75.072   L 11.808,80.064  z "
     id="path65" />
  <path
     style="fill:none;stroke:#ff592b;stroke-width:0.096000001px;stroke-linecap:round;stroke-linejoin:round;stroke-miterlimit:4;stroke-dasharray:none;stroke-opacity:1;"
     d="  M 11.808,80.064   L 11.808,69.6   L 22.272,64.608   L 22.272,75.072   L 11.808,80.064  "
     id="path67" />
  <path
     style="fill:#000000;fill-rule:evenodd;fill-opacity:1;stroke:none;"
     d="  M 134.016,119.232   L 134.016,119.232  z "
     id="path69" />
  <path
     style="fill:none;stroke:#000000;stroke-width:0.096000001px;stroke-linecap:round;stroke-linejoin:round;stroke-miterlimit:4;stroke-dasharray:none;stroke-opacity:1;"
     d="  M 134.016,119.232   L 134.016,119.232  "
     id="path71" />
  <path
     style="fill:#ff592b;fill-rule:evenodd;fill-opacity:1;stroke:none;"
     d="  M 137.184,156   L 137.184,131.52   L 164.16,119.808   L 164.16,144.384   L 137.184,156  z "
     id="path73" />
  <path
     style="fill:none;stroke:#ff592b;stroke-width:0.096000001px;stroke-linecap:round;stroke-linejoin:round;stroke-miterlimit:4;stroke-dasharray:none;stroke-opacity:1;"
     d="  M 137.184,156   L 137.184,131.52   L 164.16,119.808   L 164.16,144.384   L 137.184,156  "
     id="path75" />
  <path
     style="fill:#ff592b;fill-rule:evenodd;fill-opacity:1;stroke:none;"
     d="  M 101.664,153.504   L 101.664,133.152   L 125.76,122.688   L 125.76,143.04   L 101.664,153.504  z "
     id="path77" />
  <path
     style="fill:none;stroke:#ff592b;stroke-width:0.096000001px;stroke-linecap:round;stroke-linejoin:round;stroke-miterlimit:4;stroke-dasharray:none;stroke-opacity:1;"
     d="  M 101.664,153.504   L 101.664,133.152   L 125.76,122.688   L 125.76,143.04   L 101.664,153.504  "
     id="path79" />
  <path
     style="fill:#ff592b;fill-rule:evenodd;fill-opacity:1;stroke:none;"
     d="  M 70.368,146.592   L 70.368,131.904   L 89.664,123.648   L 89.664,138.336   L 70.368,146.592  z "
     id="path81" />
  <path
     style="fill:none;stroke:#ff592b;stroke-width:0.096000001px;stroke-linecap:round;stroke-linejoin:round;stroke-miterlimit:4;stroke-dasharray:none;stroke-opacity:1;"
     d="  M 70.368,146.592   L 70.368,131.904   L 89.664,123.648   L 89.664,138.336   L 70.368,146.592  "
     id="path83" />
  <path
     style="fill:#ff592b;fill-rule:evenodd;fill-opacity:1;stroke:none;"
     d="  M 41.952,132.864   L 41.952,119.904   L 56.064,114.144   L 56.064,126.816   L 41.952,132.864  z "
     id="path85" />
  <path
     style="fill:none;stroke:#ff592b;stroke-width:0.096000001px;stroke-linecap:round;stroke-linejoin:round;stroke-miterlimit:4;stroke-dasharray:none;stroke-opacity:1;"
     d="  M 41.952,132.864   L 41.952,119.904   L 56.064,114.144   L 56.064,126.816   L 41.952,132.864  "
     id="path87" />
  <path
     style="fill:#ff592b;fill-rule:evenodd;fill-opacity:1;stroke:none;"
     d="  M 11.808,120.768   L 11.808,110.304   L 22.272,105.216   L 22.272,115.68   L 11.808,120.768  z "
     id="path89" />
  <path
     style="fill:none;stroke:#ff592b;stroke-width:0.096000001px;stroke-linecap:round;stroke-linejoin:round;stroke-miterlimit:4;stroke-dasharray:none;stroke-opacity:1;"
     d="  M 11.808,120.768   L 11.808,110.304   L 22.272,105.216   L 22.272,115.68   L 11.808,120.768  "
     id="path91" />
  <path
     style="fill:#000000;fill-rule:evenodd;fill-opacity:1;stroke:none;"
     d="  M 134.016,201.6   L 134.016,172.224   L 166.272,158.4   L 166.272,187.68   L 134.016,201.6  z "
     id="path93" />
  <path
     style="fill:none;stroke:#000000;stroke-width:0.096000001px;stroke-linecap:round;stroke-linejoin:round;stroke-miterlimit:4;stroke-dasharray:none;stroke-opacity:1;"
     d="  M 134.016,201.6   L 134.016,172.224   L 166.272,158.4   L 166.272,187.68   L 134.016,201.6  "
     id="path95" />
  <path
     style="fill:#000000;fill-rule:evenodd;fill-opacity:1;stroke:none;"
     d="  M 98.88,196.704   L 98.88,174.432   L 127.488,162.144   L 127.488,184.416   L 98.88,196.704  z "
     id="path97" />
  <path
     style="fill:none;stroke:#000000;stroke-width:0.096000001px;stroke-linecap:round;stroke-linejoin:round;stroke-miterlimit:4;stroke-dasharray:none;stroke-opacity:1;"
     d="  M 98.88,196.704   L 98.88,174.432   L 127.488,162.144   L 127.488,184.416   L 98.88,196.704  "
     id="path99" />
  <path
     style="fill:#000000;fill-rule:evenodd;fill-opacity:1;stroke:none;"
     d="  M 67.968,189.504   L 67.968,172.8   L 90.816,162.816   L 90.816,179.712   L 67.968,189.504  z "
     id="path101" />
  <path
     style="fill:none;stroke:#000000;stroke-width:0.096000001px;stroke-linecap:round;stroke-linejoin:round;stroke-miterlimit:4;stroke-dasharray:none;stroke-opacity:1;"
     d="  M 67.968,189.504   L 67.968,172.8   L 90.816,162.816   L 90.816,179.712   L 67.968,189.504  "
     id="path103" />
  <path
     style="fill:#000000;fill-rule:evenodd;fill-opacity:1;stroke:none;"
     d="  M 39.744,174.816   L 39.744,160.992   L 57.216,153.696   L 57.216,167.616   L 39.744,174.816  z "
     id="path105" />
  <path
     style="fill:none;stroke:#000000;stroke-width:0.096000001px;stroke-linecap:round;stroke-linejoin:round;stroke-miterlimit:4;stroke-dasharray:none;stroke-opacity:1;"
     d="  M 39.744,174.816   L 39.744,160.992   L 57.216,153.696   L 57.216,167.616   L 39.744,174.816  "
     id="path107" />
  <path
     style="fill:#000000;fill-rule:evenodd;fill-opacity:1;stroke:none;"
     d="  M 134.016,199.296   L 134.016,199.296  z "
     id="path109" />
  <path
     style="fill:none;stroke:#000000;stroke-width:0.096000001px;stroke-linecap:round;stroke-linejoin:round;stroke-miterlimit:4;stroke-dasharray:none;stroke-opacity:1;"
     d="  M 134.016,199.296   L 134.016,199.296  "
     id="path111" />
  <path
     style="fill:#4fa8ff;fill-rule:evenodd;fill-opacity:1;stroke:none;"
     d="  M 137.184,239.424   L 137.184,214.656   L 164.16,203.04   L 164.16,227.808   L 137.184,239.424  z "
     id="path113" />
  <path
     style="fill:none;stroke:#4fa8ff;stroke-width:0.096000001px;stroke-linecap:round;stroke-linejoin:round;stroke-miterlimit:4;stroke-dasharray:none;stroke-opacity:1;"
     d="  M 137.184,239.424   L 137.184,214.656   L 164.16,203.04   L 164.16,227.808   L 137.184,239.424  "
     id="path115" />
  <path
     style="fill:#4fa8ff;fill-rule:evenodd;fill-opacity:1;stroke:none;"
     d="  M 101.664,235.296   L 101.664,214.848   L 125.76,204.576   L 125.76,225.024   L 101.664,235.296  z "
     id="path117" />
  <path
     style="fill:none;stroke:#4fa8ff;stroke-width:0.096000001px;stroke-linecap:round;stroke-linejoin:round;stroke-miterlimit:4;stroke-dasharray:none;stroke-opacity:1;"
     d="  M 101.664,235.296   L 101.664,214.848   L 125.76,204.576   L 125.76,225.024   L 101.664,235.296  "
     id="path119" />
  <path
     style="fill:#4fa8ff;fill-rule:evenodd;fill-opacity:1;stroke:none;"
     d="  M 70.368,228.288   L 70.368,213.696   L 89.664,205.344   L 89.664,220.128   L 70.368,228.288  z "
     id="path121" />
  <path
     style="fill:none;stroke:#4fa8ff;stroke-width:0.096000001px;stroke-linecap:round;stroke-linejoin:round;stroke-miterlimit:4;stroke-dasharray:none;stroke-opacity:1;"
     d="  M 70.368,228.288   L 70.368,213.696   L 89.664,205.344   L 89.664,220.128   L 70.368,228.288  "
     id="path123" />
  <path
     style="fill:#4fa8ff;fill-rule:evenodd;fill-opacity:1;stroke:none;"
     d="  M 41.952,214.656   L 41.952,201.6   L 56.064,196.032   L 56.064,208.512   L 41.952,214.656  z "
     id="path125" />
  <path
     style="fill:none;stroke:#4fa8ff;stroke-width:0.096000001px;stroke-linecap:round;stroke-linejoin:round;stroke-miterlimit:4;stroke-dasharray:none;stroke-opacity:1;"
     d="  M 41.952,214.656   L 41.952,201.6   L 56.064,196.032   L 56.064,208.512   L 41.952,214.656  "
     id="path127" />
  <path
     style="fill:#4fa8ff;fill-rule:evenodd;fill-opacity:1;stroke:none;"
     d="  M 11.808,202.272   L 11.808,191.808   L 22.272,187.008   L 22.272,197.472   L 11.808,202.272  z "
     id="path129" />
  <path
     style="fill:none;stroke:#4fa8ff;stroke-width:0.096000001px;stroke-linecap:round;stroke-linejoin:round;stroke-miterlimit:4;stroke-dasharray:none;stroke-opacity:1;"
     d="  M 11.808,202.272   L 11.808,191.808   L 22.272,187.008   L 22.272,197.472   L 11.808,202.272  "
     id="path131" />
  <path
     style="fill:#000000;fill-rule:evenodd;fill-opacity:1;stroke:none;"
     d="  M 134.016,239.04   L 134.016,239.04  z "
     id="path133" />
  <path
     style="fill:none;stroke:#000000;stroke-width:0.096000001px;stroke-linecap:round;stroke-linejoin:round;stroke-miterlimit:4;stroke-dasharray:none;stroke-opacity:1;"
     d="  M 134.016,239.04   L 134.016,239.04  "
     id="path135" />
  <path
     style="fill:#4fa8ff;fill-rule:evenodd;fill-opacity:1;stroke:none;"
     d="  M 137.184,278.976   L 137.184,254.592   L 164.16,242.784   L 164.16,267.456   L 137.184,278.976  z "
     id="path137" />
  <path
     style="fill:none;stroke:#4fa8ff;stroke-width:0.096000001px;stroke-linecap:round;stroke-linejoin:round;stroke-miterlimit:4;stroke-dasharray:none;stroke-opacity:1;"
     d="  M 137.184,278.976   L 137.184,254.592   L 164.16,242.784   L 164.16,267.456   L 137.184,278.976  "
     id="path139" />
  <path
     style="fill:#4fa8ff;fill-rule:evenodd;fill-opacity:1;stroke:none;"
     d="  M 101.664,274.848   L 101.664,254.592   L 125.76,244.224   L 125.76,264.576   L 101.664,274.848  z "
     id="path141" />
  <path
     style="fill:none;stroke:#4fa8ff;stroke-width:0.096000001px;stroke-linecap:round;stroke-linejoin:round;stroke-miterlimit:4;stroke-dasharray:none;stroke-opacity:1;"
     d="  M 101.664,274.848   L 101.664,254.592   L 125.76,244.224   L 125.76,264.576   L 101.664,274.848  "
     id="path143" />
  <path
     style="fill:#4fa8ff;fill-rule:evenodd;fill-opacity:1;stroke:none;"
     d="  M 70.368,268.032   L 70.368,253.44   L 89.664,244.992   L 89.664,259.968   L 70.368,268.032  z "
     id="path145" />
  <path
     style="fill:none;stroke:#4fa8ff;stroke-width:0.096000001px;stroke-linecap:round;stroke-linejoin:round;stroke-miterlimit:4;stroke-dasharray:none;stroke-opacity:1;"
     d="  M 70.368,268.032   L 70.368,253.44   L 89.664,244.992   L 89.664,259.968   L 70.368,268.032  "
     id="path147" />
  <path
     style="fill:#4fa8ff;fill-rule:evenodd;fill-opacity:1;stroke:none;"
     d="  M 41.952,255.84   L 41.952,243.456   L 56.064,237.12   L 56.064,249.888   L 41.952,255.84  z "
     id="path149" />
  <path
     style="fill:none;stroke:#4fa8ff;stroke-width:0.096000001px;stroke-linecap:round;stroke-linejoin:round;stroke-miterlimit:4;stroke-dasharray:none;stroke-opacity:1;"
     d="  M 41.952,255.84   L 41.952,243.456   L 56.064,237.12   L 56.064,249.888   L 41.952,255.84  "
     id="path151" />
  <path
     style="fill:#4fa8ff;fill-rule:evenodd;fill-opacity:1;stroke:none;"
     d="  M 11.808,243.648   L 11.808,233.184   L 22.272,228.096   L 22.272,238.56   L 11.808,243.648  z "
     id="path153" />
  <path
     style="fill:none;stroke:#4fa8ff;stroke-width:0.096000001px;stroke-linecap:round;stroke-linejoin:round;stroke-miterlimit:4;stroke-dasharray:none;stroke-opacity:1;"
     d="  M 11.808,243.648   L 11.808,233.184   L 22.272,228.096   L 22.272,238.56   L 11.808,243.648  "
     id="path155" />
  <path
     style="fill:#000000;fill-rule:evenodd;fill-opacity:1;stroke:none;"
     d="  M 134.016,323.136   L 134.016,293.856   L 166.272,279.936   L 166.272,309.312   L 134.016,323.136  z "
     id="path157" />
  <path
     style="fill:none;stroke:#000000;stroke-width:0.096000001px;stroke-linecap:round;stroke-linejoin:round;stroke-miterlimit:4;stroke-dasharray:none;stroke-opacity:1;"
     d="  M 134.016,323.136   L 134.016,293.856   L 166.272,279.936   L 166.272,309.312   L 134.016,323.136  "
     id="path159" />
  <path
     style="fill:#000000;fill-rule:evenodd;fill-opacity:1;stroke:none;"
     d="  M 98.88,318.336   L 98.88,295.968   L 127.488,283.68   L 127.488,305.952   L 98.88,318.336  z "
     id="path161" />
  <path
     style="fill:none;stroke:#000000;stroke-width:0.096000001px;stroke-linecap:round;stroke-linejoin:round;stroke-miterlimit:4;stroke-dasharray:none;stroke-opacity:1;"
     d="  M 98.88,318.336   L 98.88,295.968   L 127.488,283.68   L 127.488,305.952   L 98.88,318.336  "
     id="path163" />
  <path
     style="fill:#000000;fill-rule:evenodd;fill-opacity:1;stroke:none;"
     d="  M 67.968,311.136   L 67.968,294.336   L 90.816,284.448   L 90.816,301.344   L 67.968,311.136  z "
     id="path165" />
  <path
     style="fill:none;stroke:#000000;stroke-width:0.096000001px;stroke-linecap:round;stroke-linejoin:round;stroke-miterlimit:4;stroke-dasharray:none;stroke-opacity:1;"
     d="  M 67.968,311.136   L 67.968,294.336   L 90.816,284.448   L 90.816,301.344   L 67.968,311.136  "
     id="path167" />
  <path
     style="fill:#000000;fill-rule:evenodd;fill-opacity:1;stroke:none;"
     d="  M 39.744,298.272   L 39.744,284.448   L 57.216,276.768   L 57.216,290.592   L 39.744,298.272  z "
     id="path169" />
  <path
     style="fill:none;stroke:#000000;stroke-width:0.096000001px;stroke-linecap:round;stroke-linejoin:round;stroke-miterlimit:4;stroke-dasharray:none;stroke-opacity:1;"
     d="  M 39.744,298.272   L 39.744,284.448   L 57.216,276.768   L 57.216,290.592   L 39.744,298.272  "
     id="path171" />
  <path
     style="fill:#000000;fill-rule:evenodd;fill-opacity:1;stroke:none;"
     d="  M 10.656,285.504   L 10.656,273.984   L 23.424,267.84   L 23.424,279.744   L 10.656,285.504  z "
     id="path173" />
  <path
     style="fill:none;stroke:#000000;stroke-width:0.096000001px;stroke-linecap:round;stroke-linejoin:round;stroke-miterlimit:4;stroke-dasharray:none;stroke-opacity:1;"
     d="  M 10.656,285.504   L 10.656,273.984   L 23.424,267.84   L 23.424,279.744   L 10.656,285.504  "
     id="path175" />
  <path
     style="fill:#ffffff;fill-rule:evenodd;fill-opacity:1;stroke:none;"
     d="  M 206.496,60.864   L 206.496,266.496   L 214.464,263.232   L 222.24,260.448   L 229.824,257.856   L 237.216,255.648   L 244.512,253.728   L 251.616,252.096   L 258.528,250.752   L 265.248,249.6   L 271.68,248.64   L 278.016,247.968   L 284.16,247.392   L 290.016,247.104   L 295.68,246.912   L 301.056,246.912   L 306.24,247.008   L 311.136,247.2   L 315.84,247.584   L 320.256,248.064   L 324.48,248.544   L 328.32,249.024   L 331.968,249.696   L 335.328,250.272   L 338.4,251.04   L 341.088,251.616   L 343.584,252.288   L 345.696,252.864   L 347.616,253.44   L 349.056,253.92   L 350.304,254.304   L 351.168,254.592   L 351.648,254.784   L 351.84,254.88   L 351.84,48.288   L 346.08,45.408   L 340.224,43.008   L 334.176,40.896   L 328.128,39.36   L 321.984,38.016   L 315.84,37.152   L 309.6,36.576   L 303.456,36.288   L 297.312,36.288   L 291.168,36.576   L 285.12,36.96   L 279.072,37.728   L 273.216,38.688   L 267.456,39.648   L 261.792,40.8   L 256.32,42.144   L 251.04,43.488   L 245.952,45.12   L 241.056,46.656   L 236.448,48.192   L 232.032,49.728   L 227.904,51.264   L 224.16,52.704   L 220.608,54.24   L 217.536,55.584   L 214.656,56.832   L 212.256,57.888   L 210.24,58.944   L 208.608,59.712   L 207.456,60.288   L 206.784,60.768   L 206.496,60.864  z "
     id="path177" />
  <path
     style="fill:#000000;fill-rule:evenodd;fill-opacity:1;stroke:none;"
     d="  M 280.512,129.024   L 280.416,129.024   L 276.96,129.312   L 273.696,129.792   L 270.432,130.176   L 267.36,130.56   L 264.192,131.04   L 261.024,131.616   L 258.048,132.096   L 255.072,132.672   L 251.904,133.344   L 249.216,134.112   L 246.528,134.688   L 243.36,135.552   L 240.672,136.512   L 238.08,137.184   L 235.2,138.144   L 232.608,139.104   L 230.016,139.872   L 227.232,140.928   L 224.736,141.984   L 222.048,143.04   L 219.552,144.192   L 217.152,145.248   L 214.752,146.208   L 212.256,147.264   L 209.568,148.512   L 206.976,149.76   L 204.576,151.008   L 202.176,152.16   L 199.68,153.504   L 197.184,154.752   L 194.784,156   L 192.192,157.248   L 201.984,179.424   L 204.384,178.176   L 206.784,176.928   L 209.28,175.68   L 211.584,174.528   L 213.984,173.376   L 216.384,172.128   L 218.592,171.072   L 220.896,170.112   L 223.2,169.056   L 225.6,168   L 228,166.944   L 230.304,166.08   L 232.608,165.024   L 234.912,164.16   L 237.12,163.296   L 239.52,162.528   L 242.112,161.568   L 244.224,160.896   L 246.816,160.128   L 249.312,159.36   L 251.52,158.784   L 254.208,158.208   L 256.896,157.44   L 259.296,156.96   L 261.888,156.384   L 264.672,155.904   L 267.456,155.424   L 270.24,155.04   L 273.12,154.656   L 276.192,154.176   L 279.072,153.984   L 282.144,153.696   L 282.048,153.696   L 280.512,129.024  z "
     id="path179" />
  <path
     style="fill:#000000;fill-rule:evenodd;fill-opacity:1;stroke:none;"
     d="  M 361.728,142.08   L 359.328,140.928   L 357.024,139.872   L 354.72,138.912   L 352.224,137.76   L 349.824,136.896   L 347.424,135.936   L 345.024,135.264   L 342.72,134.4   L 340.224,133.728   L 337.92,133.056   L 335.424,132.384   L 333.024,131.808   L 330.528,131.232   L 328.032,130.752   L 325.536,130.272   L 322.944,129.984   L 320.64,129.696   L 318.24,129.312   L 315.744,129.024   L 312.864,128.736   L 310.272,128.64   L 307.872,128.544   L 305.28,128.448   L 302.592,128.352   L 299.904,128.352   L 297.312,128.352   L 294.528,128.352   L 291.744,128.448   L 289.152,128.544   L 286.176,128.64   L 283.296,128.832   L 280.512,129.024   L 282.048,153.696   L 284.832,153.504   L 287.328,153.312   L 289.92,153.216   L 292.512,153.12   L 294.912,153.024   L 297.312,153.024   L 299.904,153.024   L 302.208,153.024   L 304.512,153.12   L 306.912,153.216   L 309.312,153.312   L 311.52,153.408   L 313.44,153.504   L 315.552,153.792   L 317.952,154.08   L 320.256,154.464   L 322.272,154.752   L 324.192,155.04   L 326.304,155.424   L 328.224,155.904   L 330.24,156.384   L 332.352,156.96   L 334.464,157.536   L 336.384,158.016   L 338.304,158.688   L 340.32,159.36   L 342.336,160.128   L 344.352,160.992   L 346.272,161.664   L 348.192,162.528   L 350.304,163.584   L 352.32,164.448   L 361.728,142.08  z "
     id="path181" />
  <path
     style="fill:#000000;fill-rule:evenodd;fill-opacity:1;stroke:none;"
     d="  M 280.992,270.624   L 292.416,270.624   L 292.416,29.856   L 269.568,29.856   L 269.568,270.624   L 280.992,270.624  z "
     id="path183" />
  <path
     style="fill:#ffffff;fill-rule:evenodd;fill-opacity:1;stroke:none;"
     d="  M 206.016,327.072   L 206.208,328.032   L 208.992,333.408   L 212.256,331.584   L 209.472,326.208   L 209.664,327.072   L 206.016,327.072   L 206.016,327.648   L 206.208,328.032   L 206.016,327.072  z "
     id="path185" />
  <path
     style="fill:#ffffff;fill-rule:evenodd;fill-opacity:1;stroke:none;"
     d="  M 207.84,10.56   L 206.016,10.56   L 206.016,327.072   L 209.664,327.072   L 209.664,10.56   L 207.84,10.56  z "
     id="path187" />
  <path
     style="fill:#ff592b;fill-rule:evenodd;fill-opacity:1;stroke:none;"
     d="  M 209.76,59.136   L 210.144,58.944   L 211.2,58.464   L 212.928,57.6   L 215.232,56.544   L 218.112,55.296   L 221.472,53.856   L 225.216,52.32   L 229.44,50.688   L 233.856,49.056   L 238.656,47.328   L 243.552,45.696   L 248.736,44.16   L 253.92,42.816   L 259.2,41.568   L 264.576,40.512   L 269.76,39.744   L 269.76,130.464   L 269.472,130.464   L 268.512,130.656   L 267.072,130.944   L 264.96,131.232   L 262.464,131.712   L 259.392,132.384   L 255.936,133.056   L 252,134.016   L 247.776,135.168   L 243.168,136.512   L 238.176,138.048   L 232.992,139.776   L 227.424,141.888   L 221.76,144.096   L 215.808,146.688   L 209.76,149.472   L 209.76,59.136  z "
     id="path189" />
  <path
     style="fill:#66ff35;fill-rule:evenodd;fill-opacity:1;stroke:none;"
     d="  M 292.416,36.672   L 292.704,36.672   L 293.664,36.48   L 295.296,36.384   L 297.408,36.288   L 300,36.192   L 303.072,36.192   L 306.624,36.192   L 310.656,36.48   L 314.88,36.864   L 319.584,37.536   L 324.48,38.4   L 329.568,39.648   L 334.944,41.28   L 340.512,43.2   L 346.08,45.504   L 351.84,48.288   L 351.84,137.952   L 351.552,137.856   L 350.592,137.472   L 349.056,136.896   L 347.04,136.224   L 344.448,135.264   L 341.376,134.304   L 337.92,133.248   L 333.984,132.384   L 329.76,131.328   L 325.152,130.368   L 320.256,129.6   L 315.072,128.928   L 309.696,128.448   L 304.032,128.064   L 298.272,128.064   L 292.416,128.352   L 292.416,36.672  z "
     id="path191" />
  <path
     style="fill:#000000;fill-rule:evenodd;fill-opacity:1;stroke:none;"
     d="  M 352.512,48.288   L 352.128,47.712   L 346.368,44.832   L 340.704,42.528   L 335.136,40.512   L 329.76,38.976   L 324.576,37.728   L 319.68,36.768   L 314.976,36.192   L 310.752,35.712   L 306.624,35.424   L 303.072,35.424   L 300,35.424   L 297.408,35.52   L 295.296,35.616   L 293.568,35.712   L 292.608,36   L 292.32,36   L 292.512,37.44   L 292.8,37.44   L 293.76,37.152   L 295.296,37.056   L 297.408,36.96   L 300,36.864   L 303.072,36.864   L 306.624,36.864   L 310.56,37.152   L 314.784,37.632   L 319.488,38.208   L 324.384,39.168   L 329.376,40.416   L 334.752,41.952   L 340.32,43.968   L 345.792,46.08   L 351.552,48.96   L 351.168,48.288   L 352.512,48.288  z "
     id="path193" />
  <path
     style="fill:#000000;fill-rule:evenodd;fill-opacity:1;stroke:none;"
     d="  M 351.552,138.72   L 352.512,137.952   L 352.512,48.288   L 351.168,48.288   L 351.168,137.952   L 352.128,137.184   L 351.552,138.72   L 352.512,139.008   L 352.512,137.952   L 351.552,138.72  z "
     id="path195" />
  <path
     style="fill:#000000;fill-rule:evenodd;fill-opacity:1;stroke:none;"
     d="  M 291.744,128.352   L 292.416,129.024   L 298.272,128.832   L 304.032,128.832   L 309.696,129.12   L 314.976,129.696   L 320.16,130.272   L 325.056,131.136   L 329.664,132   L 333.792,133.056   L 337.728,134.016   L 341.184,135.072   L 344.256,135.936   L 346.848,136.896   L 348.864,137.664   L 350.4,138.144   L 351.36,138.528   L 351.552,138.72   L 352.128,137.184   L 351.744,137.088   L 350.784,136.704   L 349.248,136.224   L 347.232,135.456   L 344.64,134.496   L 341.568,133.632   L 338.112,132.576   L 334.176,131.616   L 329.856,130.56   L 325.248,129.696   L 320.352,128.832   L 315.168,128.16   L 309.696,127.68   L 304.032,127.392   L 298.272,127.392   L 292.416,127.584   L 293.088,128.352   L 291.744,128.352  z "
     id="path197" />
  <path
     style="fill:#000000;fill-rule:evenodd;fill-opacity:1;stroke:none;"
     d="  M 292.32,36   L 291.744,36.672   L 291.744,128.352   L 293.088,128.352   L 293.088,36.672   L 292.512,37.44   L 292.32,36   L 291.744,36.096   L 291.744,36.672   L 292.32,36  z "
     id="path199" />
  <path
     style="fill:#ffaf0f;fill-rule:evenodd;fill-opacity:1;stroke:none;"
     d="  M 292.416,153.216   L 292.704,153.12   L 293.664,153.024   L 295.296,152.736   L 297.408,152.544   L 300,152.352   L 303.072,152.16   L 306.624,152.16   L 310.656,152.256   L 314.88,152.544   L 319.584,153.12   L 324.48,153.888   L 329.568,154.944   L 334.944,156.384   L 340.512,158.304   L 346.08,160.512   L 351.84,163.296   L 351.84,254.592   L 351.552,254.496   L 350.592,254.112   L 349.056,253.728   L 347.04,253.248   L 344.448,252.48   L 341.376,251.904   L 337.92,251.04   L 333.984,250.272   L 329.76,249.6   L 325.152,248.928   L 320.256,248.352   L 315.072,247.776   L 309.696,247.488   L 304.032,247.392   L 298.272,247.392   L 292.416,247.68   L 292.416,153.216  z "
     id="path201" />
  <path
     style="fill:none;stroke:#000000;stroke-width:0.096000001px;stroke-linecap:round;stroke-linejoin:round;stroke-miterlimit:4;stroke-dasharray:none;stroke-opacity:1;"
     d="  M 292.416,153.216   L 292.416,153.216   L 292.704,153.12   L 293.664,153.024   L 295.296,152.736   L 297.408,152.544   L 300,152.352   L 303.072,152.16   L 306.624,152.16   L 310.656,152.256   L 314.88,152.544   L 319.584,153.12   L 324.48,153.888   L 329.568,154.944   L 334.944,156.384   L 340.512,158.304   L 346.08,160.512   L 351.84,163.296   L 351.84,254.592   L 351.84,254.592   L 351.552,254.496   L 350.592,254.112   L 349.056,253.728   L 347.04,253.248   L 344.448,252.48   L 341.376,251.904   L 337.92,251.04   L 333.984,250.272   L 329.76,249.6   L 325.152,248.928   L 320.256,248.352   L 315.072,247.776   L 309.696,247.488   L 304.032,247.392   L 298.272,247.392   L 292.416,247.68   L 292.416,153.216  "
     id="path203" />
  <path
     style="fill:#4fa8ff;fill-rule:evenodd;fill-opacity:1;stroke:none;"
     d="  M 209.76,174.624   L 210.144,174.432   L 211.2,173.952   L 212.928,173.088   L 215.232,172.032   L 218.112,170.784   L 221.472,169.344   L 225.216,167.808   L 229.44,166.176   L 233.856,164.448   L 238.656,162.816   L 243.552,161.184   L 248.736,159.648   L 253.92,158.304   L 259.2,157.056   L 264.576,156   L 269.76,155.232   L 269.76,248.736   L 269.472,248.736   L 268.512,248.832   L 267.072,249.024   L 264.96,249.312   L 262.464,249.696   L 259.392,250.176   L 255.936,250.848   L 252,251.52   L 247.776,252.576   L 243.168,253.728   L 238.176,254.976   L 232.992,256.512   L 227.424,258.24   L 221.76,260.256   L 215.808,262.56   L 209.76,265.056   L 209.76,174.624  z "
     id="path205" />
  <path
     style="fill:#000000;fill-rule:evenodd;fill-opacity:1;stroke:none;"
     d="  M 56.736,362.208   L 56.736,409.632   L 56.64,411.168   L 56.448,412.512   L 55.968,413.76   L 55.296,414.816   L 54.336,415.776   L 53.088,416.352   L 51.456,416.736   L 49.44,416.832   L 49.44,417.696   L 72.576,417.696   L 72.576,416.832   L 70.56,416.736   L 68.928,416.352   L 67.68,415.776   L 66.72,414.816   L 65.952,413.76   L 65.472,412.512   L 65.28,411.168   L 65.184,409.632   L 65.184,359.616   L 65.28,358.08   L 65.472,356.736   L 65.952,355.488   L 66.72,354.432   L 67.68,353.568   L 68.928,352.896   L 70.56,352.512   L 72.576,352.416   L 72.576,351.552   L 57.024,351.552   L 37.056,402.144   L 17.472,351.552   L 1.44,351.552   L 1.44,352.416   L 3.456,352.512   L 5.088,352.896   L 6.336,353.568   L 7.296,354.432   L 7.968,355.488   L 8.448,356.736   L 8.64,358.08   L 8.736,359.616   L 8.736,409.632   L 8.64,411.168   L 8.448,412.512   L 7.968,413.76   L 7.296,414.816   L 6.336,415.776   L 5.088,416.352   L 3.456,416.736   L 1.44,416.832   L 1.44,417.696   L 19.776,417.696   L 19.776,416.832   L 17.76,416.736   L 16.128,416.352   L 14.784,415.776   L 13.824,414.816   L 13.152,413.76   L 12.672,412.512   L 12.48,411.168   L 12.384,409.632   L 12.384,362.784   L 33.888,418.368   L 34.56,418.368   L 56.736,362.208  z "
     id="path207" />
  <path
     style="fill:#000000;fill-rule:evenodd;fill-opacity:1;stroke:none;"
     d="  M 85.344,410.688   L 85.344,367.104   L 85.44,365.76   L 85.632,364.512   L 86.016,363.456   L 86.688,362.592   L 87.552,361.824   L 88.608,361.248   L 90.048,360.864   L 91.776,360.768   L 91.776,360.096   L 71.52,360.096   L 71.52,360.768   L 73.344,360.864   L 74.784,361.248   L 75.84,361.824   L 76.704,362.592   L 77.28,363.456   L 77.664,364.512   L 77.856,365.76   L 77.952,367.104   L 77.952,410.688   L 77.856,412.032   L 77.664,413.28   L 77.28,414.24   L 76.704,415.2   L 75.84,415.968   L 74.784,416.544   L 73.344,416.832   L 71.52,417.024   L 71.52,417.696   L 91.776,417.696   L 91.776,417.024   L 90.048,416.832   L 88.608,416.544   L 87.552,415.968   L 86.688,415.2   L 86.016,414.24   L 85.632,413.28   L 85.44,412.032   L 85.344,410.688  z "
     id="path209" />
  <path
     style="fill:#000000;fill-rule:evenodd;fill-opacity:1;stroke:none;"
     d="  M 114.72,359.232   L 112.224,359.328   L 109.824,359.808   L 107.52,360.48   L 105.216,361.44   L 103.104,362.688   L 101.088,364.032   L 99.264,365.664   L 97.536,367.488   L 95.904,369.6   L 94.464,371.904   L 93.312,374.4   L 92.256,376.992   L 91.392,379.776   L 90.816,382.656   L 90.432,385.632   L 90.336,388.896   L 90.432,392.352   L 90.816,395.616   L 91.296,398.592   L 92.064,401.472   L 93.024,404.16   L 94.176,406.464   L 95.424,408.768   L 96.96,410.784   L 98.592,412.512   L 100.32,414.048   L 102.24,415.392   L 104.256,416.544   L 106.464,417.408   L 108.672,417.984   L 111.072,418.464   L 113.472,418.56   L 115.104,418.464   L 116.64,418.368   L 118.176,417.984   L 119.712,417.6   L 121.248,417.12   L 122.592,416.352   L 124.032,415.488   L 125.376,414.624   L 126.624,413.472   L 127.776,412.224   L 128.928,410.784   L 129.984,409.056   L 130.848,407.328   L 131.712,405.504   L 132.48,403.296   L 133.056,400.992   L 132.288,400.608   L 131.616,402.816   L 130.848,404.736   L 130.08,406.464   L 129.12,408.192   L 128.16,409.536   L 127.2,410.784   L 126.144,411.84   L 124.992,412.608   L 123.84,413.376   L 122.688,413.952   L 121.44,414.528   L 120.192,414.816   L 118.944,415.104   L 117.6,415.296   L 116.352,415.392   L 115.008,415.392   L 113.376,415.296   L 111.84,415.008   L 110.304,414.624   L 108.768,413.856   L 107.328,412.896   L 106.08,411.936   L 104.736,410.592   L 103.584,408.96   L 102.528,407.232   L 101.568,405.312   L 100.8,403.104   L 100.128,400.608   L 99.552,398.016   L 99.168,395.04   L 98.88,391.872   L 98.784,388.512   L 98.88,385.44   L 99.072,382.656   L 99.36,379.968   L 99.84,377.376   L 100.512,374.976   L 101.184,372.864   L 102.048,370.848   L 103.104,369.024   L 104.256,367.296   L 105.504,365.952   L 106.848,364.704   L 108.384,363.744   L 110.016,362.88   L 111.744,362.4   L 113.664,361.92   L 115.68,361.824   L 117.312,361.92   L 118.944,362.112   L 120.384,362.592   L 121.728,363.072   L 122.976,363.744   L 124.128,364.512   L 125.184,365.472   L 126.144,366.528   L 127.008,367.68   L 127.776,368.928   L 128.544,370.272   L 129.12,371.712   L 129.696,373.248   L 130.272,374.88   L 130.656,376.512   L 131.04,378.336   L 131.616,378.336   L 130.176,359.232   L 129.6,359.232   L 129.408,360.192   L 129.12,360.864   L 128.736,361.536   L 128.16,361.824   L 127.584,362.016   L 126.816,362.016   L 126.048,361.824   L 125.184,361.44   L 124.032,360.864   L 122.784,360.384   L 121.536,360.096   L 120.288,359.808   L 118.944,359.52   L 117.6,359.328   L 116.16,359.232   L 114.72,359.232  z "
     id="path211" />
  <path
     style="fill:#000000;fill-rule:evenodd;fill-opacity:1;stroke:none;"
     d="  M 160.416,389.76   L 162.144,389.088   L 164.064,388.128   L 165.888,386.784   L 167.616,385.056   L 169.152,383.04   L 170.4,380.736   L 171.264,378.144   L 171.552,375.168   L 171.456,373.632   L 171.264,372.192   L 170.976,370.752   L 170.592,369.408   L 170.016,368.064   L 169.344,366.816   L 168.48,365.568   L 167.52,364.512   L 166.464,363.456   L 165.216,362.688   L 163.872,361.824   L 162.432,361.248   L 160.8,360.672   L 158.976,360.288   L 157.056,360.096   L 155.04,360   L 153.312,360   L 151.584,360   L 149.952,360.096   L 148.32,360.096   L 146.592,360.096   L 144.864,360.192   L 143.136,360.192   L 141.216,360.192   L 140.256,360.192   L 139.296,360.192   L 138.24,360.192   L 137.28,360.096   L 136.224,360.096   L 135.072,360.096   L 134.016,360   L 132.864,360   L 132.864,360.768   L 134.592,360.96   L 136.032,361.344   L 137.184,361.92   L 137.952,362.688   L 138.528,363.744   L 138.912,364.704   L 139.104,365.952   L 139.2,367.296   L 139.2,410.592   L 139.104,411.936   L 138.912,413.184   L 138.528,414.24   L 137.952,415.2   L 137.184,415.968   L 136.032,416.544   L 134.592,416.832   L 132.864,417.024   L 132.864,417.696   L 153.12,417.696   L 153.12,417.024   L 151.296,416.832   L 149.856,416.544   L 148.8,415.968   L 147.936,415.2   L 147.36,414.24   L 146.976,413.28   L 146.784,412.032   L 146.688,410.688   L 146.688,391.104   L 147.36,391.104   L 148.128,391.104   L 148.8,391.104   L 149.472,391.104   L 150.24,391.008   L 150.912,391.008   L 151.584,390.816   L 152.256,390.72   L 152.832,391.872   L 153.504,393.024   L 154.08,394.176   L 154.656,395.328   L 155.328,396.48   L 155.904,397.632   L 156.48,398.688   L 157.056,399.84   L 157.728,400.992   L 158.304,402.24   L 158.88,403.392   L 159.456,404.544   L 160.032,405.696   L 160.704,406.752   L 161.28,407.808   L 161.856,408.96   L 162.432,410.112   L 163.008,411.264   L 163.584,412.32   L 164.16,413.472   L 164.64,414.528   L 165.216,415.584   L 165.696,416.64   L 166.176,417.696   L 179.04,417.696   L 179.04,417.024   L 178.08,416.832   L 177.12,416.64   L 176.16,416.352   L 175.2,415.872   L 174.24,415.104   L 173.376,414.144   L 172.608,413.184   L 171.84,411.84   L 160.416,389.76  z "
     id="path213" />
  <path
     style="fill:#ffffff;fill-rule:evenodd;fill-opacity:1;stroke:none;"
     d="  M 146.688,388.032   L 146.688,363.84   L 147.264,363.744   L 147.84,363.552   L 148.416,363.456   L 149.088,363.36   L 149.856,363.36   L 150.72,363.264   L 151.68,363.264   L 152.832,363.264   L 154.848,363.456   L 156.672,364.128   L 158.4,365.184   L 159.936,366.528   L 161.184,368.16   L 162.144,370.272   L 162.816,372.48   L 163.008,374.976   L 162.912,376.416   L 162.816,377.76   L 162.528,379.104   L 162.144,380.352   L 161.664,381.504   L 160.992,382.56   L 160.32,383.616   L 159.36,384.384   L 158.304,385.248   L 157.152,386.016   L 155.808,386.592   L 154.368,387.168   L 152.64,387.552   L 150.816,387.84   L 148.896,387.936   L 146.688,388.032  z "
     id="path215" />
  <path
     style="fill:#000000;fill-rule:evenodd;fill-opacity:1;stroke:none;"
     d="  M 198.336,359.232   L 195.84,359.328   L 193.44,359.808   L 191.04,360.48   L 188.832,361.44   L 186.624,362.688   L 184.608,364.032   L 182.688,365.664   L 180.96,367.488   L 179.424,369.6   L 177.984,371.904   L 176.736,374.4   L 175.68,376.992   L 174.912,379.776   L 174.24,382.656   L 173.856,385.632   L 173.76,388.896   L 173.856,392.064   L 174.24,395.232   L 174.816,398.112   L 175.68,400.896   L 176.736,403.488   L 177.984,405.888   L 179.424,408.192   L 180.96,410.208   L 182.784,412.128   L 184.704,413.76   L 186.72,415.2   L 188.928,416.352   L 191.232,417.312   L 193.728,417.984   L 196.224,418.464   L 198.816,418.56   L 201.12,418.464   L 203.328,417.984   L 205.632,417.312   L 207.744,416.352   L 209.856,415.2   L 211.776,413.76   L 213.696,412.128   L 215.424,410.208   L 217.056,408.288   L 218.496,405.984   L 219.744,403.488   L 220.8,400.896   L 221.664,398.112   L 222.336,395.232   L 222.72,392.064   L 222.816,388.896   L 222.72,386.208   L 222.336,383.424   L 221.856,380.736   L 221.088,378.144   L 220.128,375.552   L 218.976,373.152   L 217.632,370.752   L 216.096,368.544   L 214.464,366.624   L 212.544,364.704   L 210.528,363.168   L 208.416,361.824   L 206.112,360.672   L 203.616,360   L 201.024,359.424   L 198.336,359.232  z "
     id="path217" />
  <path
     style="fill:#ffffff;fill-rule:evenodd;fill-opacity:1;stroke:none;"
     d="  M 198.24,361.92   L 200.16,362.016   L 201.888,362.592   L 203.616,363.168   L 205.152,364.128   L 206.592,365.376   L 207.84,366.72   L 209.088,368.352   L 210.144,370.08   L 211.104,372.096   L 211.872,374.208   L 212.544,376.32   L 213.12,378.72   L 213.6,381.216   L 213.888,383.712   L 214.08,386.304   L 214.176,388.896   L 214.08,391.584   L 213.984,394.176   L 213.696,396.768   L 213.216,399.264   L 212.736,401.568   L 212.064,403.68   L 211.296,405.792   L 210.432,407.712   L 209.376,409.536   L 208.224,411.072   L 206.976,412.416   L 205.536,413.568   L 204,414.528   L 202.368,415.2   L 200.544,415.584   L 198.624,415.776   L 196.992,415.584   L 195.36,415.296   L 193.824,414.816   L 192.384,414.144   L 190.944,413.28   L 189.6,412.128   L 188.352,410.784   L 187.2,409.248   L 186.144,407.424   L 185.184,405.504   L 184.416,403.296   L 183.648,400.896   L 183.168,398.208   L 182.688,395.328   L 182.496,392.16   L 182.4,388.896   L 182.496,385.92   L 182.688,382.944   L 182.976,380.256   L 183.36,377.664   L 183.936,375.264   L 184.608,373.056   L 185.472,371.04   L 186.336,369.216   L 187.392,367.488   L 188.544,366.048   L 189.888,364.8   L 191.328,363.84   L 192.864,362.976   L 194.496,362.496   L 196.32,362.016   L 198.24,361.92  z "
     id="path219" />
  <path
     style="fill:#000000;fill-rule:evenodd;fill-opacity:1;stroke:none;"
     d="  M 241.728,418.56   L 243.552,418.464   L 245.184,418.08   L 246.816,417.696   L 248.256,417.12   L 249.696,416.256   L 250.944,415.392   L 252.096,414.432   L 253.152,413.28   L 254.112,412.032   L 254.976,410.688   L 255.648,409.248   L 256.224,407.712   L 256.704,406.272   L 256.992,404.736   L 257.184,403.104   L 257.28,401.568   L 257.184,399.648   L 256.992,398.016   L 256.512,396.48   L 256.032,395.04   L 255.36,393.792   L 254.592,392.544   L 253.632,391.488   L 252.672,390.432   L 251.616,389.568   L 250.464,388.704   L 249.216,387.936   L 247.968,387.168   L 246.624,386.4   L 245.28,385.632   L 243.936,384.864   L 242.592,384.096   L 239.616,382.368   L 237.12,380.832   L 235.2,379.488   L 233.76,378.048   L 232.704,376.704   L 231.936,375.168   L 231.552,373.536   L 231.456,371.712   L 231.648,369.696   L 232.128,367.872   L 232.896,366.336   L 233.952,364.896   L 235.2,363.936   L 236.64,363.072   L 238.272,362.688   L 240,362.496   L 242.304,362.688   L 244.512,363.264   L 246.624,364.32   L 248.448,365.76   L 250.08,367.872   L 251.424,370.464   L 252.576,373.536   L 253.344,377.376   L 254.112,377.376   L 253.92,359.232   L 253.248,359.232   L 252.96,360.096   L 252.576,360.768   L 252.096,361.344   L 251.52,361.728   L 250.752,361.92   L 249.888,361.92   L 248.928,361.632   L 247.968,361.248   L 247.008,360.672   L 245.952,360.384   L 244.992,360   L 244.032,359.808   L 243.072,359.52   L 242.112,359.328   L 241.152,359.232   L 240.288,359.232   L 238.56,359.328   L 236.928,359.52   L 235.392,360   L 233.952,360.48   L 232.512,361.248   L 231.264,362.016   L 230.112,362.976   L 229.056,364.032   L 228.096,365.184   L 227.328,366.432   L 226.56,367.776   L 225.984,369.12   L 225.504,370.56   L 225.216,372.096   L 225.024,373.632   L 224.928,375.168   L 224.928,376.704   L 225.12,378.048   L 225.312,379.392   L 225.6,380.448   L 225.984,381.6   L 226.56,382.656   L 227.232,383.712   L 228,384.768   L 228.864,385.632   L 230.016,386.688   L 231.264,387.648   L 232.608,388.608   L 234.24,389.568   L 235.968,390.528   L 237.888,391.584   L 240.096,392.736   L 242.784,394.176   L 244.992,395.52   L 246.72,396.96   L 248.064,398.4   L 249.024,400.128   L 249.6,401.856   L 249.984,403.872   L 250.08,406.176   L 249.888,408.096   L 249.408,409.728   L 248.64,411.264   L 247.584,412.608   L 246.336,413.76   L 244.8,414.624   L 243.072,415.104   L 241.152,415.296   L 239.04,415.104   L 236.736,414.624   L 234.432,413.664   L 232.128,412.128   L 230.016,410.016   L 228.288,407.328   L 227.04,403.776   L 226.368,399.552   L 225.792,399.552   L 225.984,418.56   L 226.656,418.56   L 226.848,417.6   L 227.232,417.024   L 227.712,416.352   L 228.288,416.064   L 228.96,415.872   L 229.728,415.872   L 230.592,416.064   L 231.552,416.352   L 232.608,416.736   L 233.76,417.216   L 235.008,417.6   L 236.256,417.888   L 237.504,418.176   L 238.848,418.368   L 240.288,418.56   L 241.728,418.56  z "
     id="path221" />
  <path
     style="fill:#000000;fill-rule:evenodd;fill-opacity:1;stroke:none;"
     d="  M 283.392,359.232   L 280.896,359.328   L 278.496,359.808   L 276.096,360.48   L 273.888,361.44   L 271.68,362.688   L 269.664,364.032   L 267.744,365.664   L 266.016,367.488   L 264.48,369.6   L 263.04,371.904   L 261.792,374.4   L 260.736,376.992   L 259.968,379.776   L 259.296,382.656   L 258.912,385.632   L 258.816,388.896   L 258.912,392.064   L 259.296,395.232   L 259.872,398.112   L 260.736,400.896   L 261.792,403.488   L 263.04,405.888   L 264.48,408.192   L 266.016,410.208   L 267.84,412.128   L 269.76,413.76   L 271.776,415.2   L 273.984,416.352   L 276.288,417.312   L 278.784,417.984   L 281.28,418.464   L 283.872,418.56   L 286.176,418.464   L 288.384,417.984   L 290.688,417.312   L 292.8,416.352   L 294.912,415.2   L 296.832,413.76   L 298.752,412.128   L 300.48,410.208   L 302.112,408.288   L 303.552,405.984   L 304.8,403.488   L 305.856,400.896   L 306.72,398.112   L 307.392,395.232   L 307.776,392.064   L 307.872,388.896   L 307.776,386.208   L 307.392,383.424   L 306.912,380.736   L 306.144,378.144   L 305.184,375.552   L 304.032,373.152   L 302.688,370.752   L 301.152,368.544   L 299.52,366.624   L 297.6,364.704   L 295.584,363.168   L 293.472,361.824   L 291.168,360.672   L 288.672,360   L 286.08,359.424   L 283.392,359.232  z "
     id="path223" />
  <path
     style="fill:#ffffff;fill-rule:evenodd;fill-opacity:1;stroke:none;"
     d="  M 283.296,361.92   L 285.216,362.016   L 287.04,362.592   L 288.672,363.168   L 290.208,364.128   L 291.648,365.376   L 292.992,366.72   L 294.144,368.352   L 295.2,370.08   L 296.16,372.096   L 296.928,374.208   L 297.696,376.32   L 298.272,378.72   L 298.656,381.216   L 298.944,383.712   L 299.136,386.304   L 299.232,388.896   L 299.136,391.584   L 299.04,394.176   L 298.752,396.768   L 298.272,399.264   L 297.792,401.568   L 297.12,403.68   L 296.352,405.792   L 295.488,407.712   L 294.432,409.536   L 293.28,411.072   L 292.032,412.416   L 290.688,413.568   L 289.152,414.528   L 287.424,415.2   L 285.6,415.584   L 283.68,415.776   L 282.048,415.584   L 280.416,415.296   L 278.88,414.816   L 277.44,414.144   L 276,413.28   L 274.656,412.128   L 273.408,410.784   L 272.256,409.248   L 271.2,407.424   L 270.24,405.504   L 269.472,403.296   L 268.704,400.896   L 268.224,398.208   L 267.744,395.328   L 267.552,392.16   L 267.456,388.896   L 267.552,385.92   L 267.744,382.944   L 268.032,380.256   L 268.416,377.664   L 268.992,375.264   L 269.664,373.056   L 270.528,371.04   L 271.392,369.216   L 272.448,367.488   L 273.6,366.048   L 274.944,364.8   L 276.384,363.84   L 277.92,362.976   L 279.552,362.496   L 281.376,362.016   L 283.296,361.92  z "
     id="path225" />
  <path
     style="fill:#000000;fill-rule:evenodd;fill-opacity:1;stroke:none;"
     d="  M 326.208,417.696   L 326.208,417.024   L 324.192,416.832   L 322.656,416.544   L 321.408,415.968   L 320.544,415.2   L 319.872,414.24   L 319.488,413.28   L 319.296,412.032   L 319.2,410.688   L 319.2,388.896   L 331.872,388.896   L 333.504,388.992   L 334.944,389.184   L 336.096,389.76   L 337.152,390.432   L 338.016,391.584   L 338.592,392.928   L 338.976,394.752   L 339.072,396.96   L 339.648,396.96   L 339.648,377.376   L 339.072,377.376   L 338.976,379.68   L 338.592,381.408   L 338.016,382.848   L 337.152,383.904   L 336.096,384.768   L 334.944,385.248   L 333.504,385.44   L 331.872,385.536   L 319.2,385.536   L 319.2,363.456   L 334.464,363.456   L 336.672,363.552   L 338.496,364.032   L 340.032,364.704   L 341.28,365.76   L 342.336,367.104   L 343.104,368.736   L 343.776,370.848   L 344.256,373.248   L 344.832,373.248   L 343.968,360.096   L 305.376,360.096   L 305.376,360.768   L 307.104,360.864   L 308.544,361.248   L 309.696,361.824   L 310.464,362.592   L 311.04,363.456   L 311.424,364.512   L 311.616,365.76   L 311.712,367.104   L 311.712,410.688   L 311.616,412.032   L 311.424,413.28   L 311.04,414.24   L 310.464,415.2   L 309.504,415.968   L 308.352,416.544   L 306.72,416.832   L 304.8,417.024   L 304.8,417.696   L 326.208,417.696  z "
     id="path227" />
  <path
     style="fill:#000000;fill-rule:evenodd;fill-opacity:1;stroke:none;"
     d="  M 371.04,363.552   L 377.088,363.552   L 379.2,363.84   L 381.024,364.32   L 382.56,365.28   L 383.808,366.624   L 384.864,368.16   L 385.728,370.272   L 386.304,372.48   L 386.784,375.168   L 387.456,375.168   L 386.688,360.096   L 347.904,360.096   L 347.04,375.168   L 347.808,375.168   L 348.192,372.48   L 348.864,370.272   L 349.632,368.16   L 350.688,366.624   L 351.936,365.28   L 353.472,364.32   L 355.296,363.84   L 357.408,363.552   L 363.552,363.552   L 363.552,410.688   L 363.456,412.032   L 363.264,413.28   L 362.88,414.24   L 362.304,415.2   L 361.44,415.968   L 360.288,416.544   L 358.848,416.832   L 357.12,417.024   L 357.12,417.696   L 377.376,417.696   L 377.376,417.024   L 375.552,416.832   L 374.112,416.544   L 373.056,415.968   L 372.192,415.2   L 371.616,414.24   L 371.328,413.28   L 371.136,412.032   L 371.04,410.688   L 371.04,363.552  z "
     id="path229" />
  <path
     style="fill:#000000;fill-rule:evenodd;fill-opacity:1;stroke:none;"
     d="  M 34.272,450.432   L 45.984,487.68   L 46.272,487.68   L 61.92,437.856   L 62.496,435.936   L 63.168,434.4   L 63.936,433.056   L 64.704,432   L 65.568,431.328   L 66.528,430.656   L 67.584,430.368   L 68.736,430.272   L 68.736,429.504   L 54.432,429.504   L 54.432,430.272   L 55.968,430.368   L 57.12,430.752   L 58.08,431.424   L 58.752,432.288   L 59.136,433.536   L 59.136,434.976   L 58.944,436.896   L 58.368,439.008   L 48.576,470.88   L 38.112,437.376   L 37.728,435.744   L 37.536,434.304   L 37.632,433.056   L 38.016,432   L 38.688,431.328   L 39.648,430.656   L 40.896,430.368   L 42.528,430.272   L 42.624,429.504   L 23.808,429.504   L 23.712,430.272   L 24.96,430.368   L 25.92,430.56   L 26.88,430.944   L 27.648,431.616   L 28.32,432.48   L 28.896,433.632   L 29.568,435.072   L 30.144,436.8   L 32.832,445.344   L 24.864,470.784   L 14.496,437.376   L 14.112,435.744   L 13.92,434.208   L 14.016,433.056   L 14.4,432   L 15.072,431.136   L 16.128,430.656   L 17.472,430.368   L 19.104,430.272   L 19.104,429.504   L 0,429.504   L 0,430.272   L 1.248,430.368   L 2.304,430.56   L 3.168,430.944   L 3.936,431.616   L 4.704,432.48   L 5.28,433.632   L 5.856,435.072   L 6.432,436.8   L 22.368,487.68   L 22.656,487.68   L 34.272,450.432  z "
     id="path231" />
  <path
     style="fill:#000000;fill-rule:evenodd;fill-opacity:1;stroke:none;"
     d="  M 74.88,480.768   L 74.88,443.04   L 74.976,441.888   L 75.168,440.832   L 75.456,439.872   L 76.032,439.008   L 76.704,438.432   L 77.76,437.952   L 78.912,437.568   L 80.448,437.472   L 80.448,436.896   L 62.976,436.896   L 62.976,437.472   L 64.512,437.568   L 65.76,437.952   L 66.72,438.432   L 67.488,439.008   L 67.968,439.872   L 68.256,440.832   L 68.448,441.888   L 68.448,443.04   L 68.448,480.768   L 68.448,481.824   L 68.256,482.88   L 67.968,483.84   L 67.488,484.704   L 66.72,485.28   L 65.76,485.76   L 64.512,486.144   L 62.976,486.24   L 62.976,486.816   L 80.448,486.816   L 80.448,486.24   L 78.912,486.144   L 77.76,485.76   L 76.704,485.28   L 76.032,484.704   L 75.456,483.84   L 75.168,482.88   L 74.976,481.824   L 74.88,480.768  z "
     id="path233" />
  <path
     style="fill:#000000;fill-rule:evenodd;fill-opacity:1;stroke:none;"
     d="  M 117.12,487.296   L 117.888,487.296   L 117.888,443.04   L 117.984,441.888   L 118.08,440.832   L 118.464,439.872   L 118.944,439.008   L 119.712,438.432   L 120.672,437.952   L 121.824,437.568   L 123.36,437.472   L 123.36,436.896   L 109.632,436.896   L 109.632,437.472   L 111.168,437.568   L 112.416,437.952   L 113.376,438.432   L 114.048,439.008   L 114.528,439.872   L 114.912,440.832   L 115.008,441.888   L 115.104,443.04   L 115.104,472.992   L 88.896,436.896   L 77.76,436.896   L 77.76,437.472   L 78.72,437.568   L 79.68,437.952   L 80.544,438.336   L 81.312,438.816   L 82.08,439.584   L 82.848,440.448   L 83.616,441.312   L 84.288,442.272   L 84.288,480.768   L 84.192,481.824   L 84.096,482.88   L 83.712,483.84   L 83.232,484.704   L 82.56,485.28   L 81.6,485.76   L 80.352,486.144   L 78.816,486.24   L 78.816,486.816   L 92.448,486.816   L 92.448,486.24   L 90.912,486.144   L 89.76,485.76   L 88.8,485.28   L 88.128,484.704   L 87.648,483.84   L 87.264,482.88   L 87.168,481.824   L 87.072,480.768   L 87.072,445.728   L 117.12,487.296  z "
     id="path235" />
  <path
     style="fill:#000000;fill-rule:evenodd;fill-opacity:1;stroke:none;"
     d="  M 164.928,461.856   L 164.832,458.976   L 164.448,456.288   L 163.872,453.696   L 163.2,451.296   L 162.24,448.992   L 161.088,447.072   L 159.744,445.056   L 158.304,443.424   L 156.672,441.984   L 154.944,440.64   L 153.024,439.488   L 151.008,438.528   L 148.896,437.856   L 146.688,437.28   L 144.48,436.992   L 142.08,436.896   L 140.544,436.896   L 138.912,436.896   L 137.28,436.896   L 135.648,436.896   L 133.92,436.992   L 132.192,436.992   L 130.56,436.992   L 128.832,436.992   L 127.968,436.992   L 127.2,436.992   L 126.336,436.992   L 125.376,436.896   L 124.512,436.896   L 123.552,436.896   L 122.592,436.896   L 121.632,436.896   L 121.632,437.472   L 123.168,437.568   L 124.416,437.952   L 125.376,438.432   L 126.048,439.2   L 126.528,439.968   L 126.912,440.928   L 127.008,441.984   L 127.104,443.136   L 127.104,480.48   L 127.008,481.632   L 126.912,482.688   L 126.528,483.648   L 126.048,484.416   L 125.376,485.184   L 124.416,485.664   L 123.168,486.048   L 121.632,486.24   L 121.632,486.816   L 122.592,486.816   L 123.552,486.72   L 124.512,486.72   L 125.376,486.72   L 126.336,486.624   L 127.2,486.624   L 127.968,486.624   L 128.832,486.624   L 130.56,486.624   L 132.192,486.624   L 133.824,486.72   L 135.36,486.72   L 136.704,486.72   L 137.952,486.816   L 139.008,486.816   L 139.872,486.816   L 142.656,486.72   L 145.248,486.432   L 147.744,485.952   L 150.144,485.088   L 152.352,484.128   L 154.368,482.976   L 156.288,481.632   L 158.016,480.096   L 159.552,478.464   L 160.992,476.544   L 162.144,474.528   L 163.104,472.32   L 163.872,469.92   L 164.448,467.328   L 164.832,464.64   L 164.928,461.856  z "
     id="path237" />
  <path
     style="fill:#ffffff;fill-rule:evenodd;fill-opacity:1;stroke:none;"
     d="  M 140.064,484.032   L 139.2,484.032   L 138.336,484.032   L 137.472,484.032   L 136.608,483.936   L 135.84,483.936   L 135.072,483.744   L 134.304,483.648   L 133.536,483.456   L 133.536,440.064   L 134.304,439.968   L 135.072,439.872   L 135.936,439.776   L 136.704,439.776   L 137.472,439.68   L 138.24,439.68   L 138.912,439.68   L 139.488,439.68   L 141.696,439.776   L 143.712,440.064   L 145.632,440.736   L 147.456,441.408   L 149.088,442.368   L 150.528,443.52   L 151.968,444.768   L 153.12,446.208   L 154.176,447.84   L 155.136,449.664   L 155.904,451.488   L 156.576,453.504   L 157.056,455.616   L 157.44,457.824   L 157.632,460.224   L 157.728,462.624   L 157.632,465.216   L 157.344,467.52   L 156.864,469.824   L 156.288,471.936   L 155.52,473.856   L 154.656,475.68   L 153.6,477.216   L 152.448,478.656   L 151.2,479.904   L 149.76,481.056   L 148.32,481.92   L 146.784,482.688   L 145.152,483.36   L 143.52,483.744   L 141.792,483.936   L 140.064,484.032  z "
     id="path239" />
  <path
     style="fill:#000000;fill-rule:evenodd;fill-opacity:1;stroke:none;"
     d="  M 187.968,436.128   L 185.76,436.224   L 183.648,436.704   L 181.632,437.184   L 179.712,438.048   L 177.888,439.008   L 176.064,440.256   L 174.432,441.792   L 172.992,443.424   L 171.552,445.152   L 170.4,447.168   L 169.344,449.184   L 168.384,451.488   L 167.712,453.888   L 167.136,456.48   L 166.848,459.072   L 166.752,461.856   L 166.848,464.64   L 167.232,467.232   L 167.712,469.824   L 168.384,472.224   L 169.344,474.528   L 170.4,476.544   L 171.648,478.56   L 172.992,480.288   L 174.528,481.92   L 176.256,483.456   L 177.984,484.704   L 179.904,485.664   L 181.92,486.528   L 184.032,487.008   L 186.24,487.488   L 188.448,487.584   L 190.464,487.488   L 192.384,487.008   L 194.304,486.528   L 196.128,485.664   L 197.952,484.704   L 199.584,483.456   L 201.216,481.92   L 202.752,480.384   L 204.096,478.656   L 205.344,476.64   L 206.4,474.528   L 207.36,472.224   L 208.128,469.824   L 208.608,467.328   L 208.992,464.64   L 209.088,461.856   L 208.992,459.456   L 208.704,457.056   L 208.224,454.848   L 207.552,452.544   L 206.784,450.24   L 205.728,448.128   L 204.576,446.112   L 203.328,444.192   L 201.888,442.464   L 200.256,440.928   L 198.528,439.584   L 196.608,438.432   L 194.688,437.376   L 192.576,436.8   L 190.272,436.224   L 187.968,436.128  z "
     id="path241" />
  <path
     style="fill:#ffffff;fill-rule:evenodd;fill-opacity:1;stroke:none;"
     d="  M 187.968,438.528   L 189.6,438.624   L 191.136,439.008   L 192.576,439.68   L 193.92,440.544   L 195.168,441.408   L 196.224,442.656   L 197.28,444   L 198.144,445.632   L 199.008,447.264   L 199.68,449.088   L 200.256,451.104   L 200.736,453.024   L 201.12,455.136   L 201.408,457.344   L 201.504,459.552   L 201.6,461.856   L 201.504,464.16   L 201.408,466.464   L 201.12,468.672   L 200.832,470.784   L 200.352,472.8   L 199.776,474.72   L 199.104,476.448   L 198.432,478.176   L 197.472,479.712   L 196.512,481.056   L 195.456,482.208   L 194.208,483.168   L 192.864,484.032   L 191.52,484.512   L 189.888,484.992   L 188.256,485.088   L 186.816,484.992   L 185.472,484.8   L 184.128,484.32   L 182.88,483.744   L 181.632,482.88   L 180.48,481.92   L 179.424,480.864   L 178.368,479.52   L 177.504,477.888   L 176.64,476.256   L 175.968,474.336   L 175.392,472.224   L 174.912,469.92   L 174.528,467.424   L 174.336,464.736   L 174.24,461.856   L 174.336,459.264   L 174.432,456.672   L 174.72,454.368   L 175.104,452.16   L 175.584,450.048   L 176.16,448.128   L 176.832,446.4   L 177.696,444.768   L 178.56,443.424   L 179.616,442.176   L 180.672,441.024   L 181.92,440.16   L 183.264,439.488   L 184.704,438.912   L 186.336,438.624   L 187.968,438.528  z "
     id="path243" />
  <path
     style="fill:#000000;fill-rule:evenodd;fill-opacity:1;stroke:none;"
     d="  M 231.936,455.136   L 242.112,487.584   L 242.4,487.584   L 256.032,444.096   L 256.608,442.464   L 257.184,441.12   L 257.76,439.968   L 258.432,439.008   L 259.104,438.336   L 259.968,437.952   L 260.832,437.568   L 261.888,437.472   L 261.888,436.896   L 249.504,436.896   L 249.504,437.472   L 250.752,437.568   L 251.808,437.952   L 252.672,438.528   L 253.248,439.296   L 253.536,440.448   L 253.536,441.6   L 253.344,443.328   L 252.864,445.152   L 244.32,472.992   L 235.296,443.712   L 234.912,442.272   L 234.72,441.024   L 234.816,439.872   L 235.2,439.008   L 235.776,438.336   L 236.64,437.952   L 237.696,437.568   L 239.136,437.472   L 239.232,436.896   L 222.72,436.896   L 222.72,437.472   L 223.776,437.568   L 224.64,437.856   L 225.408,438.144   L 226.08,438.72   L 226.656,439.488   L 227.232,440.544   L 227.712,441.792   L 228.288,443.232   L 230.592,450.624   L 223.68,472.8   L 214.656,443.712   L 214.272,442.272   L 214.176,440.928   L 214.272,439.872   L 214.56,439.008   L 215.136,438.336   L 216,437.952   L 217.152,437.568   L 218.592,437.472   L 218.592,436.896   L 201.984,436.896   L 201.984,437.472   L 203.04,437.568   L 204,437.856   L 204.768,438.144   L 205.536,438.72   L 206.112,439.488   L 206.688,440.544   L 207.168,441.792   L 207.648,443.232   L 221.472,487.584   L 221.76,487.584   L 231.936,455.136  z "
     id="path245" />
  <path
     style="fill:#000000;fill-rule:evenodd;fill-opacity:1;stroke:none;"
     d="  M 272.352,487.584   L 275.328,487.296   L 278.016,486.336   L 280.32,484.896   L 282.24,482.88   L 283.776,480.768   L 284.928,478.272   L 285.6,475.584   L 285.792,472.8   L 285.504,469.728   L 284.736,467.136   L 283.488,465.024   L 281.856,463.2   L 279.936,461.664   L 277.728,460.32   L 275.52,458.976   L 273.12,457.728   L 270.528,456.192   L 268.416,454.848   L 266.784,453.696   L 265.44,452.448   L 264.576,451.296   L 264,450.048   L 263.616,448.608   L 263.52,447.072   L 263.712,445.248   L 264.096,443.712   L 264.768,442.272   L 265.632,441.12   L 266.784,440.16   L 268.032,439.488   L 269.376,439.008   L 270.912,438.912   L 272.928,439.2   L 274.848,439.68   L 276.672,440.544   L 278.208,441.888   L 279.648,443.616   L 280.8,445.824   L 281.76,448.608   L 282.432,451.776   L 283.104,451.776   L 282.912,436.128   L 282.336,436.128   L 282.144,436.896   L 281.76,437.472   L 281.376,438.048   L 280.8,438.336   L 280.224,438.528   L 279.456,438.528   L 278.688,438.336   L 277.824,437.952   L 276.96,437.472   L 276.096,437.184   L 275.232,436.896   L 274.368,436.608   L 273.504,436.32   L 272.736,436.224   L 271.872,436.128   L 271.104,436.128   L 268.224,436.416   L 265.632,437.28   L 263.424,438.528   L 261.504,440.256   L 259.968,442.368   L 258.912,444.768   L 258.144,447.36   L 257.952,450.048   L 258.048,452.448   L 258.528,454.56   L 259.392,456.48   L 260.64,458.208   L 262.368,459.936   L 264.576,461.664   L 267.456,463.296   L 271.008,465.216   L 273.312,466.464   L 275.232,467.616   L 276.672,468.768   L 277.824,470.112   L 278.688,471.456   L 279.168,473.088   L 279.456,474.816   L 279.552,476.928   L 279.456,478.464   L 278.976,479.904   L 278.304,481.248   L 277.44,482.4   L 276.288,483.456   L 275.04,484.128   L 273.504,484.512   L 271.872,484.8   L 270.048,484.704   L 268.128,484.128   L 266.112,483.36   L 264.096,481.92   L 262.272,480.192   L 260.832,477.792   L 259.776,474.816   L 259.2,471.072   L 258.624,471.072   L 258.816,487.584   L 259.392,487.584   L 259.584,486.72   L 259.872,486.144   L 260.256,485.664   L 260.832,485.376   L 261.408,485.184   L 262.08,485.184   L 262.848,485.28   L 263.616,485.568   L 264.576,486.048   L 265.536,486.336   L 266.592,486.624   L 267.648,486.912   L 268.704,487.296   L 269.856,487.392   L 271.104,487.584   L 272.352,487.584  z "
     id="path247" />
  <path
     style="fill:#000000;fill-rule:evenodd;fill-opacity:1;stroke:none;"
     d="  M 342.624,487.392   L 343.392,487.392   L 343.392,436.608   L 343.488,435.264   L 343.68,434.016   L 344.064,432.96   L 344.64,432   L 345.504,431.328   L 346.56,430.656   L 348,430.368   L 349.728,430.272   L 349.728,429.504   L 333.984,429.504   L 333.984,430.272   L 335.712,430.368   L 337.152,430.656   L 338.208,431.328   L 339.072,432   L 339.648,432.96   L 339.936,434.016   L 340.128,435.264   L 340.224,436.608   L 340.224,470.88   L 310.08,429.504   L 297.312,429.504   L 297.312,430.272   L 298.464,430.368   L 299.52,430.656   L 300.576,431.136   L 301.44,431.808   L 302.304,432.672   L 303.168,433.536   L 303.936,434.592   L 304.8,435.744   L 304.8,479.808   L 304.704,481.152   L 304.512,482.4   L 304.224,483.456   L 303.648,484.32   L 302.784,485.088   L 301.728,485.664   L 300.288,486.048   L 298.464,486.144   L 298.464,486.816   L 314.208,486.816   L 314.208,486.144   L 312.48,486.048   L 311.04,485.664   L 309.984,485.088   L 309.12,484.32   L 308.544,483.456   L 308.256,482.4   L 308.064,481.152   L 307.968,479.808   L 307.968,439.68   L 342.624,487.392  z "
     id="path249" />
  <path
     style="fill:#000000;fill-rule:evenodd;fill-opacity:1;stroke:none;"
     d="  M 371.04,433.056   L 376.992,433.056   L 379.104,433.248   L 380.928,433.728   L 382.464,434.688   L 383.712,436.032   L 384.768,437.568   L 385.536,439.68   L 386.112,441.984   L 386.592,444.672   L 387.264,444.672   L 386.496,429.504   L 348.192,429.504   L 347.328,444.672   L 348.096,444.672   L 348.48,441.984   L 349.056,439.68   L 349.824,437.568   L 350.88,436.032   L 352.128,434.688   L 353.664,433.728   L 355.488,433.248   L 357.6,433.056   L 363.648,433.056   L 363.648,479.808   L 363.552,481.152   L 363.36,482.4   L 362.976,483.456   L 362.4,484.32   L 361.536,485.088   L 360.48,485.664   L 359.04,486.048   L 357.312,486.144   L 357.312,486.816   L 377.28,486.816   L 377.28,486.144   L 375.552,486.048   L 374.112,485.664   L 373.056,485.088   L 372.192,484.32   L 371.616,483.456   L 371.328,482.4   L 371.136,481.152   L 371.04,479.808   L 371.04,433.056  z "
     id="path251" />
  <path
     style="fill:#000000;fill-rule:evenodd;fill-opacity:1;stroke:none;"
     d="  M 391.872,423.552   L 396.96,422.304   L 400.8,419.904   L 403.104,415.584   L 404.256,410.112   L 403.104,405.312   L 400.8,400.896   L 396.96,398.496   L 391.872,397.248   L 387.36,398.496   L 383.328,400.896   L 381.12,405.312   L 379.968,410.112   L 381.12,415.584   L 383.328,419.904   L 387.36,422.304   L 391.872,423.552  z    M 382.176,410.112   L 382.848,405.792   L 385.056,402.24   L 388.416,399.744   L 391.872,399.168   L 395.712,399.744   L 399.168,402.24   L 401.472,405.792   L 402.048,410.112   L 401.472,414.912   L 399.168,418.08   L 395.712,420.48   L 391.872,421.152   L 388.416,420.48   L 385.056,418.08   L 382.848,414.912   L 382.176,410.112  z    M 389.568,410.784   L 391.872,410.784   L 395.712,418.08   L 398.016,418.08   L 394.08,410.784   L 395.232,410.784   L 396.288,409.536   L 396.96,408.864   L 397.536,407.04   L 396.96,405.312   L 396.288,404.064   L 394.656,402.816   L 392.928,402.816   L 387.36,402.816   L 387.36,418.08   L 389.568,418.08   L 389.568,410.784  z    M 389.568,408.864   L 389.568,404.544   L 392.448,404.544   L 393.6,404.544   L 394.656,404.544   L 395.232,405.312   L 395.232,406.464   L 395.232,407.616   L 394.656,408.288   L 393.6,408.864   L 391.872,408.864   L 389.568,408.864  z   "
     id="path253" />
  <path
     style="fill:#000000;fill-rule:evenodd;fill-opacity:1;stroke:none;"
     d="  M 374.688,336.192   L 379.776,334.944   L 383.712,332.544   L 386.016,328.224   L 387.168,322.752   L 386.016,317.856   L 383.712,313.632   L 379.776,311.136   L 374.688,309.888   L 370.176,311.136   L 366.24,313.632   L 363.936,317.856   L 362.88,322.752   L 363.936,328.224   L 366.24,332.544   L 370.176,334.944   L 374.688,336.192  z    M 365.088,322.752   L 365.664,318.528   L 367.872,314.88   L 371.328,312.384   L 374.688,311.808   L 378.624,312.384   L 382.08,314.88   L 384.288,318.528   L 384.864,322.752   L 384.288,327.648   L 382.08,330.72   L 378.624,333.12   L 374.688,333.792   L 371.328,333.12   L 367.872,330.72   L 365.664,327.648   L 365.088,322.752  z    M 372.48,323.424   L 374.688,323.424   L 378.624,330.72   L 380.928,330.72   L 376.992,323.424   L 378.048,323.424   L 379.2,322.176   L 379.776,321.504   L 380.352,319.776   L 379.776,317.856   L 379.2,316.608   L 377.568,315.36   L 375.84,315.36   L 370.176,315.36   L 370.176,330.72   L 372.48,330.72   L 372.48,323.424  z    M 372.48,321.504   L 372.48,317.28   L 375.264,317.28   L 376.416,317.28   L 377.568,317.28   L 378.048,317.856   L 378.048,319.104   L 378.048,320.352   L 377.568,320.928   L 376.416,321.504   L 374.688,321.504   L 372.48,321.504  z   "
     id="path255" />
  <path
     style="fill:#000000;fill-rule:evenodd;fill-opacity:1;stroke:none;"
     d="  M 383.232,469.632   L 389.76,469.632   L 389.76,485.856   L 392.064,485.856   L 392.064,469.632   L 398.592,469.632   L 398.592,467.328   L 383.232,467.328   L 383.232,469.632  z "
     id="path257" />
  <path
     style="fill:#000000;fill-rule:evenodd;fill-opacity:1;stroke:none;"
     d="  M 418.464,485.856   L 418.464,467.328   L 415.2,467.328   L 409.632,483.072   L 409.632,483.072   L 404.064,467.328   L 400.896,467.328   L 400.896,485.856   L 403.2,485.856   L 403.2,475.2   L 403.2,474.72   L 403.2,473.376   L 403.2,471.936   L 403.2,470.496   L 403.2,470.496   L 408.288,485.856   L 411.072,485.856   L 416.16,470.496   L 416.16,470.496   L 416.16,471.936   L 416.16,473.376   L 416.16,474.72   L 416.16,475.2   L 416.16,485.856   L 418.464,485.856  z "
     id="path259" />
</svg>
